<svg xmlns="http://www.w3.org/2000/svg" viewBox="0 0 24 24" width="100%" height="100%">
        <path fill="#00758F" d="M12.1 2C6.5 2 2 6.5 2 12.1c0 5.6 4.5 10.1 10.1 10.1 5.6 0 10.1-4.5 10.1-10.1C22.2 6.5 17.7 2 12.1 2zm6 12.8c-.8.6-2 .7-2.9.2-.8-.4-1.3-1.3-1.3-2.2 0-.8.4-1.6 1.1-2 .6-.4 1.5-.4 2.1 0 .2.1.4.1.6 0 .2-.1.3-.3.3-.5 0-.9-.7-1.7-1.6-2-1.3-.4-2.8.2-3.4 1.4-.6 1.2-.4 2.8.6 3.7.8.8 2.1 1 3.1.6.2-.1.4 0 .5.2.1.2 0 .5-.2.6-1.5.7-3.4.4-4.6-.7-1.2-1.2-1.4-3.1-.6-4.6.8-1.5 2.6-2.2 4.2-1.7 1.2.3 2.1 1.3 2.5 2.5.1.4 0 .9-.3 1.2l-.1.1z"/>
    </svg>